<svg width="457" height="334" viewBox="0 0 457 334" fill="none" xmlns="http://www.w3.org/2000/svg">
<path fill-rule="evenodd" clip-rule="evenodd" d="M159.774 55.737L156.929 60.614H154.2L153.33 62.048H156.087L150.018 72.431C148.741 74.639 149.642 76.677 152.08 76.677C153.303 76.677 154.618 76.04 155.933 75.056L155.155 76.39H158.201L162.789 68.503C167.433 62.736 169.495 63.483 168.188 65.693L164.268 72.433C162.99 74.643 163.891 76.681 166.329 76.681C168.125 76.681 170.117 75.311 172.022 73.476C172.168 75.333 173.689 76.681 176.112 76.681C179.535 76.681 182.932 74.041 185.428 71.173C185.231 70.77 184.709 70.312 184.302 70.14L184.099 70.366C181.921 72.863 179.135 74.841 177.017 74.841C175.157 74.841 174.053 73.695 175.447 71.286L175.737 70.766C177.683 71.571 181.341 71.197 183.605 67.326L184.042 66.579C185.667 63.826 184.1 61.761 181.632 61.761C179.193 61.761 177.249 63.024 175.972 65.202L173.042 70.167L172.866 70.367C170.689 72.861 168.571 74.839 167.235 74.839C166.569 74.839 166.189 74.379 166.885 73.204L171.24 65.661C172.546 63.396 171.3 61.761 169.616 61.761C168.309 61.761 166.914 62.478 165.406 64.026L170.224 55.737H167.205L158.782 70.175L158.612 70.365C156.436 72.861 154.315 74.839 152.979 74.839C152.312 74.839 151.935 74.379 152.633 73.204L159.105 62.046H161.572L162.444 60.613H159.948L162.793 55.738L159.774 55.737ZM127.465 60.616L130.31 55.741H133.329L130.483 60.614H132.982L132.11 62.05H129.645L123.169 73.208C122.472 74.383 122.85 74.843 123.517 74.843C124.852 74.843 126.974 72.864 129.15 70.368L129.306 70.192L130.543 68.102L132.023 65.549C133.765 62.565 135.563 61.649 137.885 61.649C140.731 61.649 142.414 64.602 140.586 67.729L137.741 72.575C139.252 72.546 140.935 71.831 142.299 70.368L142.504 70.14C142.91 70.312 143.432 70.769 143.632 71.173C142.092 72.979 139.248 74.069 137.448 74.069H136.782C133.513 78.153 128.166 77.41 128.172 73.608C126.306 75.377 124.369 76.681 122.615 76.681C120.177 76.681 119.276 74.643 120.554 72.434L126.622 62.051H123.865L124.735 60.616H127.465ZM138.263 66.614C139.291 64.872 138.825 63.667 137.841 63.577C137.076 63.507 135.998 64.113 135.071 65.669L133.62 68.106L131.326 72.034C129.526 75.131 132.983 75.59 134.405 73.18L134.435 73.124C134.26 72.836 134.144 72.491 134.144 72.12C134.144 71.145 134.927 70.341 135.914 70.341H136.059L138.263 66.614ZM181.575 66.583C182.587 64.839 182.055 63.922 181.086 63.979V63.98C180.334 64.024 179.317 64.658 178.554 65.95L176.608 69.307C177.741 69.709 179.688 69.767 181.138 67.329L181.575 66.583ZM225.404 58.516C223.69 60.036 223.546 61.73 224.621 63.106L224.883 63.45L224.821 63.5369C223.492 65.3928 221.718 67.8725 219.773 70.134L219.775 70.137L219.572 70.366C218.207 71.827 216.526 72.546 215.014 72.575L217.857 67.727C219.687 64.601 218.004 61.647 215.157 61.647C212.837 61.647 211.037 62.565 209.297 65.547L207.813 68.1L206.575 70.192L206.421 70.368C203.924 73.208 201.778 75.039 199.396 76.044L206.159 64.63H204.389C204.389 63.396 203.113 61.76 201.225 61.76C199.601 61.76 197.335 63.025 196.057 65.204L191.819 72.431C190.541 74.639 191.441 76.677 193.879 76.677C194.722 76.677 195.739 76.303 196.756 75.673L195.913 77.077C191.849 78.31 189.293 79.945 189.293 82.183C189.293 85.052 193.735 85.654 195.913 81.983L198.205 78.053C200.621 77.31 202.988 75.906 205.445 73.589C205.424 77.406 210.782 78.156 214.055 74.065H214.723C216.523 74.065 219.368 72.976 220.907 71.169C222.356 69.505 223.487 68.014 225.897 64.774L226.302 65.263C226.679 65.75 226.827 66.353 226.477 66.954L223.284 72.433C222.004 74.643 222.905 76.679 225.345 76.679C226.875 76.679 228.549 75.684 230.187 74.257C230.137 75.643 231.074 76.679 232.806 76.679C233.646 76.679 234.663 76.306 235.68 75.675L234.838 77.077C230.773 78.31 228.222 79.945 228.222 82.183C228.222 85.052 232.662 85.653 234.838 81.983L237.13 78.053C239.59 77.295 242 75.847 244.507 73.454C244.643 75.322 246.165 76.679 248.597 76.679C251.055 76.679 253.496 75.316 255.601 73.489C255.484 77.394 260.911 78.192 264.213 74.067H264.881C265.826 74.067 267.056 73.759 268.238 73.214C267.425 75.287 268.172 76.679 269.899 76.679C271.555 76.679 273.412 75.187 274.863 73.811C274.573 75.416 275.53 76.679 277.447 76.679C279.943 76.679 282.817 74.042 285.315 71.173L285.313 71.171C286.668 69.6266 287.896 67.9951 288.883 66.6853L288.883 66.6851C289.143 66.3395 289.387 66.0163 289.611 65.723C289.211 66.7632 289.017 68.082 288.827 69.3748C288.452 71.9297 288.091 74.383 286.185 74.383C285.169 74.383 284.765 73.293 284.765 73.293L282.875 74.268C282.875 74.268 283.426 76.68 286.185 76.68C286.453 76.68 286.697 76.6544 286.959 76.6269L287.025 76.62C287.04 76.62 287.055 76.6133 287.071 76.6065C287.086 76.5998 287.101 76.593 287.116 76.593C290.192 76.193 293.24 73.783 295.504 71.173C295.331 70.714 294.808 70.255 294.374 70.139L294.171 70.368C293.106 71.6003 291.886 72.6893 290.541 73.608C290.916 72.4942 291.113 71.1467 291.326 69.69C291.657 67.4322 292.025 64.9123 293.155 62.594L290.891 61.389C290.66 61.7019 290.379 62.0902 290.056 62.5352C288.633 64.4981 286.41 67.5651 284.185 70.137V70.139L283.982 70.368C281.806 72.864 279.687 74.84 278.351 74.84C277.684 74.84 277.306 74.381 278.004 73.206L284.448 62.048H281.428L276.058 71.313C273.765 73.377 271.996 74.525 271.414 74.266C270.714 73.9747 271.313 72.9903 271.705 72.3458C271.736 72.2956 271.765 72.2475 271.792 72.202L277.685 62.05H274.665L269.931 70.142L269.732 70.368C268.368 71.831 266.685 72.548 265.174 72.578L268.019 67.729C269.847 64.602 268.169 61.649 265.32 61.649C262.997 61.649 261.197 62.567 259.456 65.552L257.974 68.102L256.737 70.192L256.582 70.37C254.406 72.866 251.618 74.843 249.499 74.843C247.641 74.843 246.539 73.697 247.932 71.288L248.222 70.77C250.166 71.574 253.826 71.2 256.089 67.327L256.527 66.581C258.15 63.827 256.585 61.762 254.117 61.762C251.677 61.762 249.73 63.027 248.454 65.206L245.528 70.171L245.353 70.368C242.854 73.208 240.708 75.041 238.325 76.046L245.089 64.63H243.317C243.317 63.396 242.04 61.762 240.153 61.762C238.528 61.762 236.264 63.025 234.986 65.204L232.09 70.141L232.082 70.137L231.879 70.367C229.703 72.862 227.581 74.841 226.245 74.841C225.578 74.841 225.203 74.381 225.899 73.206L228.917 67.986C229.962 66.179 229.468 65.116 228.48 63.94L226.797 61.93C226.362 61.385 226.362 60.784 226.972 60.21L225.404 58.516ZM215.534 66.614C216.561 64.872 216.094 63.666 215.11 63.576V63.577C214.346 63.507 213.27 64.113 212.342 65.669L210.889 68.106L208.597 72.034C206.797 75.131 210.253 75.59 211.675 73.18L211.703 73.124C211.529 72.836 211.413 72.491 211.413 72.12C211.413 71.145 212.197 70.341 213.183 70.341H213.33L215.534 66.614ZM265.268 63.576C266.252 63.666 266.721 64.872 265.694 66.614L263.488 70.341H263.341C262.355 70.341 261.573 71.145 261.573 72.12C261.573 72.491 261.689 72.836 261.862 73.124L261.832 73.18C260.411 75.59 256.957 75.131 258.757 72.034L261.049 68.106L262.5 65.669C263.427 64.113 264.503 63.507 265.268 63.577V63.576ZM254.053 66.583C255.065 64.84 254.536 63.924 253.568 63.981V63.982C252.816 64.026 251.798 64.66 251.036 65.952L249.088 69.307C250.221 69.709 252.167 69.767 253.618 67.329L254.053 66.583ZM201.165 64.182C202.188 64.176 202.843 65.066 202.01 66.582L199.718 70.542C197.888 73.439 196.058 74.842 194.78 74.842C194.113 74.842 193.735 74.383 194.431 73.208L198.643 65.952C199.353 64.735 200.37 64.187 201.165 64.182ZM240.933 66.582C241.766 65.066 241.111 64.176 240.088 64.182C239.293 64.187 238.276 64.735 237.566 65.952L233.356 73.208C232.662 74.383 233.038 74.842 233.705 74.842C234.981 74.842 236.813 73.439 238.641 70.542L240.933 66.582ZM194.75 79.09L194.749 79.0913C192.459 79.9792 191.732 80.8671 191.732 81.641C191.732 82.444 192.748 82.615 193.386 81.497L194.749 79.0913L194.75 79.091V79.09ZM233.674 79.0913L233.675 79.09V79.091L233.674 79.0913ZM233.674 79.0913L232.313 81.497C231.673 82.615 230.657 82.444 230.657 81.641C230.657 80.8671 231.383 79.9792 233.674 79.0913ZM79.025 67.478H107.947V69.428H79.025V67.478ZM334.977 67.478H306.055V69.428H334.977V67.478Z" fill="#766458"/>
<path fill-rule="evenodd" clip-rule="evenodd" d="M172.824 37.011V44.747H152.008V0H172.824V7.67H159.624V18.474H170.159V26.144H159.624V37.01L172.824 37.011ZM194.17 44.747V37.011L183.573 37.01V0H175.957V44.747H194.17ZM300.7 44.747V37.011H287.499V26.144H298.034V18.474H287.499V7.671H300.7V0H279.884V44.747H300.7ZM275.459 0.001H267.908L261.115 21.606L254.324 0.001H246.772V44.748H254.389V22.758L257.371 34.136H264.796L267.843 22.758V44.748H275.459V0.001ZM235.999 7.671H230.476V37.011H236L235.999 7.671ZM243.679 4.732C243.679 2.11 241.521 0.001 238.981 0.001L227.557 0.002C224.957 0.002 222.861 2.111 222.861 4.732V40.017C222.861 42.574 224.957 44.747 227.557 44.747H238.981C241.521 44.747 243.679 42.574 243.679 40.017V4.732ZM210.971 28.253L218.649 26.463V40.015C218.649 42.572 216.492 44.745 213.953 44.745H202.528C199.928 44.745 197.833 42.572 197.833 40.015V4.731C197.833 2.109 199.928 0.001 202.528 0.001H213.951C216.491 0.001 218.648 2.109 218.648 4.731V13.808L210.97 15.598V7.67H205.448V37.01H210.97L210.971 28.253ZM148.241 0.001H140.564L139.994 37.011H139.232L134.344 0.001H126.792L122.032 37.011H121.208L120.573 0.001H112.957L114.099 44.747H128.632L130.599 26.273L132.567 44.747H147.037L148.241 0.001Z" fill="#81B3D3"/>
<path fill-rule="evenodd" clip-rule="evenodd" d="M9.289 172.556C9.366 172.634 9.405 172.711 9.405 172.789C9.483 172.789 9.56 172.827 9.637 172.905C11.727 175.227 14.089 177.395 16.721 179.408C19.353 181.343 22.373 182.388 25.779 182.543C25.857 182.543 25.934 182.583 26.011 182.66H26.36C26.437 182.66 26.515 182.698 26.592 182.776H27.869C28.257 182.698 28.605 182.621 28.915 182.543C30.156 182.31 31.3395 181.837 32.399 181.15C33.559 180.453 34.45 179.601 35.069 178.595L35.302 178.13L35.534 177.666C35.689 177.124 35.805 176.621 35.883 176.156C35.96 175.692 35.999 175.266 35.999 174.879C35.999 172.789 35.069 171.047 33.212 169.653C31.4805 168.21 29.517 167.072 27.405 166.285C26.6107 165.992 25.7954 165.759 24.966 165.589C24.2379 165.369 23.5021 165.175 22.76 165.008H22.528C22.45 164.931 22.373 164.892 22.296 164.892C18.5304 163.974 14.9274 162.486 11.612 160.479C8.282 158.389 5.999 155.408 4.76 151.537C4.51737 150.727 4.28502 149.914 4.063 149.098C3.90406 148.214 3.78792 147.323 3.715 146.428C3.64366 146.162 3.60471 145.889 3.599 145.614V142.827C3.676 142.208 3.792 141.589 3.947 140.969C4.18741 139.388 4.57612 137.832 5.108 136.324C5.65 134.776 6.347 133.382 7.198 132.144C9.676 128.04 12.85 125.098 16.721 123.318C20.67 121.537 24.773 120.647 29.031 120.647C30.038 120.647 31.044 120.724 32.051 120.879C33.1384 120.957 34.2228 121.073 35.302 121.227C38.126 121.702 40.8904 122.481 43.547 123.55C46.334 124.634 48.889 125.911 51.212 127.382L44.825 141.666C42.7406 140.122 40.5256 138.762 38.205 137.602C35.883 136.44 33.367 135.86 30.657 135.86H29.727C27.947 136.092 26.283 136.905 24.734 138.298C23.186 139.614 22.412 141.047 22.412 142.595V143.292C22.489 143.524 22.605 143.756 22.76 143.989C22.915 144.531 23.186 145.034 23.573 145.499C23.96 145.963 24.386 146.389 24.85 146.776C25.702 147.473 26.94 148.131 28.567 148.75C30.192 149.292 31.896 149.834 33.677 150.376C35.147 150.763 36.579 151.15 37.973 151.537C39.367 151.847 40.528 152.157 41.457 152.467C45.792 154.015 49.044 156.608 51.212 160.247C53.379 163.808 54.502 167.602 54.579 171.627V172.208C54.579 172.673 54.541 173.138 54.463 173.602V174.879C53.999 178.905 52.683 182.737 50.515 186.376C48.425 190.015 45.599 192.802 42.038 194.738C40.7162 195.359 39.3588 195.902 37.973 196.363C36.589 196.748 35.1952 197.097 33.793 197.409C32.643 197.64 31.4792 197.795 30.309 197.873C29.1927 198.025 28.0676 198.102 26.941 198.105H25.663C21.018 197.951 16.451 196.944 11.96 195.085C7.47 193.15 3.483 190.595 0 187.421L9.289 172.556ZM225.183 126.31C218.835 129.794 213.88 134.827 210.319 141.407L210.318 141.406C209.295 143.302 208.44 145.283 207.763 147.328C207.078 149.3 206.535 151.318 206.138 153.367C205.905 154.452 205.75 155.496 205.673 156.502C205.596 157.509 205.557 158.516 205.557 159.522C205.557 166.335 207.415 172.916 211.131 179.264C214.847 185.535 219.957 190.374 226.46 193.78C228.828 195.006 231.319 195.979 233.892 196.683C236.48 197.372 239.122 197.838 241.789 198.077H243.299C243.838 198.154 244.381 198.193 244.925 198.193C252.511 198.193 259.751 196.141 266.641 192.038C273.531 187.858 278.602 182.013 281.853 174.503C282.461 172.991 282.965 171.439 283.363 169.858C283.821 168.264 284.132 166.632 284.292 164.981C284.447 164.206 284.525 163.432 284.525 162.658C284.602 161.806 284.641 160.993 284.641 160.219C284.641 153.795 283.131 147.639 280.112 141.755C277.093 135.794 272.835 131.033 267.338 127.471C264.789 125.848 262.061 124.523 259.209 123.523C256.465 122.527 253.623 121.827 250.731 121.433C249.802 121.355 248.835 121.278 247.828 121.2C246.899 121.123 245.97 121.084 245.041 121.084C238.151 121.084 231.531 122.826 225.183 126.31ZM298.328 196.391V122.417H317.838L345.709 160.391C346.429 161.516 347.088 162.679 347.683 163.875C348.387 165.049 349.045 166.25 349.657 167.475L351.051 170.495C351.515 171.501 351.98 172.468 352.444 173.397C352.371 172.579 352.255 171.765 352.096 170.959C352.019 170.185 351.941 169.372 351.864 168.52C351.706 166.936 351.59 165.349 351.515 163.759C351.435 162.096 351.396 160.43 351.399 158.765V122.417H370.792V196.391H351.399L323.296 158.185C322.522 157.256 321.786 156.172 321.09 154.934C320.386 153.602 319.727 152.246 319.116 150.869C318.666 149.894 318.202 148.926 317.722 147.966C317.363 147.026 316.975 146.096 316.561 145.179C316.948 147.579 317.258 150.018 317.49 152.495C317.722 154.972 317.832 157.45 317.838 159.927V196.391H298.328ZM405.788 122.417L380.356 196.391H400.33L404.162 183.036H432.73L436.446 196.391H456.652L430.988 122.417H405.788ZM408.46 168.752L416.008 144.249C416.315 143.174 416.587 142.09 416.821 140.997C417.137 139.886 417.408 138.763 417.633 137.63C417.71 137.475 417.75 137.359 417.75 137.281C417.75 137.127 417.788 136.972 417.866 136.817C417.943 136.352 418.021 135.926 418.098 135.539C418.253 135.075 418.369 134.649 418.446 134.262C418.524 134.649 418.601 135.075 418.679 135.539C418.756 135.927 418.872 136.352 419.027 136.817C419.269 138.1 419.54 139.378 419.84 140.649C420.216 141.853 420.603 143.053 421.001 144.249L428.55 168.752H408.46ZM263.158 168C263.39 167.226 263.584 166.413 263.738 165.561C263.971 164.71 264.126 163.858 264.203 163.006C264.281 162.465 264.319 161.923 264.319 161.381C264.397 160.839 264.435 160.335 264.435 159.871C264.435 159.404 264.396 158.938 264.319 158.477V157.084C263.932 153.754 262.926 150.542 261.299 147.445C259.674 144.348 257.429 141.948 254.564 140.245C253.79 139.858 253.016 139.51 252.242 139.2C251.468 138.89 250.693 138.62 249.919 138.387C249.151 138.233 248.376 138.117 247.597 138.039C246.832 137.885 246.054 137.807 245.274 137.806C241.326 137.806 237.687 139.046 234.358 141.523C231.029 144 228.706 147.29 227.39 151.393L227.158 151.858V152.322C226.919 153.045 226.725 153.782 226.578 154.529C226.423 155.226 226.268 155.961 226.113 156.735L225.881 158.361V160.8C225.881 161.032 225.919 161.303 225.997 161.613C226.229 165.716 227.467 169.626 229.713 173.342C232.035 176.98 235.21 179.38 239.235 180.542L240.629 181.006C241.093 181.084 241.597 181.161 242.139 181.238L243.532 181.471H244.926C249.029 181.471 252.706 180.271 255.958 177.871C259.287 175.393 261.687 172.103 263.158 168ZM169.157 194.533C173.415 193.603 177.363 191.9 181.002 189.423H181.003C185.493 186.171 188.938 181.991 191.338 176.881C193.738 171.771 195.054 166.468 195.287 160.971V158.068C195.287 157.603 195.248 157.139 195.17 156.675C194.861 151.409 193.506 146.3 191.106 141.345C188.706 136.391 185.338 132.404 181.003 129.385C177.639 126.926 173.805 125.187 169.739 124.275C165.713 123.346 161.609 122.765 157.429 122.533C156.268 122.455 155.068 122.417 153.829 122.417H128.745V196.391H152.551C153.791 196.391 155.03 196.352 156.267 196.275C160.602 196.043 164.899 195.463 169.157 194.533ZM148.602 179.784C148.834 179.784 149.067 179.823 149.299 179.9H150.112C150.422 179.9 150.692 179.94 150.925 180.017H154.06C154.912 179.939 155.725 179.862 156.499 179.784C158.503 179.631 160.486 179.281 162.421 178.739C164.357 178.197 166.099 177.384 167.647 176.3C170.125 174.52 171.944 172.12 173.105 169.1C174.337 166.036 174.968 162.764 174.963 159.462V158.532C174.963 158.223 174.925 157.913 174.847 157.604C174.695 154.671 173.985 151.794 172.757 149.126C171.518 146.339 169.815 144.133 167.647 142.506C166.057 141.208 164.189 140.294 162.189 139.836C160.208 139.365 158.185 139.093 156.15 139.023H148.602V179.784ZM68.692 122.416V196.39H114.098V179.784H88.55V167.242H112.589V151.448H88.55V138.558H114.098V122.416H68.692ZM351.039 318.799C350.926 319.09 350.869 319.382 350.869 319.676C350.869 320.394 351.116 320.945 351.609 321.325C352.104 321.709 352.679 321.899 353.329 321.899C353.305 322.28 353.205 322.617 353.025 322.909C352.846 323.2 352.617 323.457 352.349 323.669C352.082 323.882 351.795 324.062 351.492 324.208C351.188 324.353 350.914 324.47 350.664 324.56L352.014 326.55C352.047 326.534 352.079 326.518 352.112 326.503L352.141 326.489L352.198 326.463C352.26 326.434 352.322 326.407 352.384 326.38C352.59 326.292 352.83 326.172 353.11 326.028C353.418 325.865 353.716 325.685 354.003 325.488C354.305 325.285 354.588 325.054 354.846 324.797C355.399 324.248 355.839 323.595 356.142 322.877C356.446 322.158 356.597 321.369 356.597 320.519C356.597 320.068 356.531 319.642 356.395 319.238C356.26 318.834 356.07 318.486 355.823 318.194C355.532 317.877 355.176 317.637 354.762 317.467C354.346 317.299 353.914 317.215 353.464 317.215C353.059 317.215 352.694 317.289 352.369 317.435C352.059 317.57 351.778 317.764 351.542 318.007C351.319 318.243 351.151 318.506 351.039 318.799ZM358.706 319.676C358.706 319.383 358.763 319.09 358.873 318.799C358.986 318.506 359.155 318.243 359.379 318.007C359.606 317.772 359.879 317.579 360.204 317.435C360.531 317.29 360.894 317.215 361.3 317.215C361.75 317.215 362.183 317.299 362.597 317.467C363.014 317.637 363.367 317.877 363.658 318.194C363.908 318.486 364.098 318.834 364.232 319.238C364.366 319.643 364.434 320.069 364.434 320.519C364.443 321.328 364.288 322.13 363.979 322.877C363.675 323.595 363.234 324.247 362.681 324.797C362.422 325.054 362.139 325.285 361.836 325.488C361.55 325.687 361.252 325.867 360.943 326.028C360.663 326.173 360.423 326.292 360.218 326.38C360.094 326.434 359.97 326.491 359.848 326.55L358.5 324.56C358.747 324.471 359.02 324.353 359.325 324.208C359.629 324.062 359.915 323.882 360.185 323.669C360.453 323.455 360.679 323.202 360.858 322.909C361.039 322.617 361.14 322.281 361.162 321.899C360.54 321.91 359.934 321.707 359.443 321.325C358.953 320.945 358.706 320.394 358.706 319.677V319.676ZM93.976 261.835C94.089 261.544 94.146 261.251 94.146 260.96H94.147C94.147 260.241 93.899 259.692 93.407 259.311C92.913 258.929 92.339 258.739 91.689 258.739C91.712 258.356 91.812 258.018 91.992 257.726C92.172 257.434 92.395 257.181 92.665 256.968C92.935 256.754 93.222 256.575 93.525 256.429C93.7943 256.299 94.0696 256.181 94.35 256.077L93.002 254.089C92.958 254.111 92.835 254.169 92.632 254.256C92.429 254.345 92.187 254.464 91.907 254.608C91.5989 254.77 91.3007 254.95 91.014 255.148C90.7106 255.35 90.4278 255.581 90.17 255.838C89.617 256.388 89.1764 257.04 88.873 257.758C88.57 258.478 88.418 259.266 88.418 260.118C88.4158 260.553 88.4841 260.985 88.62 261.398C88.7421 261.78 88.9367 262.135 89.193 262.443C89.4882 262.76 89.8503 263.008 90.253 263.168C90.6648 263.336 91.1054 263.421 91.55 263.42C92.2723 263.43 92.9672 263.144 93.473 262.628C93.6917 262.4 93.8627 262.13 93.976 261.835ZM86.31 260.96C86.3052 261.582 86.0647 262.179 85.637 262.63C85.4014 262.872 85.1208 263.066 84.811 263.201C84.485 263.347 84.119 263.421 83.715 263.421C83.27 263.423 82.8291 263.337 82.417 263.169C82.0144 263.008 81.6524 262.76 81.357 262.443C81.1 262.135 80.9054 261.78 80.784 261.398C80.6476 260.985 80.5793 260.553 80.582 260.118C80.582 259.266 80.732 258.478 81.037 257.758C81.34 257.04 81.7806 256.387 82.334 255.838C82.581 255.59 82.861 255.361 83.177 255.147C83.491 254.935 83.789 254.754 84.07 254.607C84.35 254.463 84.59 254.345 84.794 254.257L84.8507 254.231C85.0195 254.155 85.1254 254.108 85.166 254.087L86.513 256.075C86.265 256.165 85.991 256.283 85.687 256.428C85.384 256.575 85.097 256.754 84.83 256.966C84.5625 257.178 84.3337 257.435 84.154 257.725C83.975 258.017 83.874 258.355 83.852 258.737C84.502 258.737 85.076 258.927 85.57 259.31C86.063 259.692 86.31 260.24 86.31 260.96ZM335.475 317.834H331.66L343.541 297.198H347.317L335.475 317.834ZM331.479 319.322C330.243 319.322 329.298 320.302 329.298 321.54C329.298 322.778 330.244 323.72 331.479 323.72C332.711 323.72 333.696 322.776 333.696 321.54C333.696 320.304 332.711 319.322 331.479 319.322ZM306.217 311.907L305.127 313.795C305.962 316.266 309.266 314.886 310.396 312.924L312.211 309.8C313.556 307.51 310.577 305.839 306.217 311.907ZM330.219 316.775C330.001 316.195 329.347 315.612 328.802 315.468L328.547 315.76C327.218 317.32 325.691 318.699 324.005 319.864C324.475 318.453 324.722 316.745 324.988 314.899C325.4 312.04 325.86 308.85 327.273 305.914L324.438 304.387C324.16 304.769 323.822 305.24 323.437 305.779L323.436 305.78L323.436 305.78C321.659 308.263 318.852 312.184 316.046 315.468C316.052 315.478 316.062 315.486 316.067 315.493C316.061 315.49 316.054 315.486 316.047 315.482C316.039 315.476 316.03 315.471 316.022 315.468L315.769 315.76C313.042 318.92 310.392 321.426 308.719 321.426C307.885 321.426 307.085 320.59 307.085 318.883V317.321C309.737 317.648 312.535 315.903 314.315 312.817L315.331 311.074C318.853 305.044 313.114 303.044 309.263 306.57L314.638 297.233H310.859L300.084 315.928C299.877 315.745 299.645 315.591 299.395 315.471L299.139 315.763C296.416 318.923 292.928 321.429 290.276 321.429C287.951 321.429 286.571 319.976 288.315 316.925L292.199 310.168C294.379 306.426 298.231 307.044 295.977 310.968L295.433 311.912H298.523L299.068 310.968C301.102 307.48 299.139 304.864 296.053 304.864C293.002 304.864 290.566 306.464 288.968 309.224L285.25 315.604C285.23 315.592 285.21 315.58 285.19 315.568C285.131 315.532 285.072 315.496 285.017 315.472L284.762 315.764C282.038 318.924 279.387 321.43 277.715 321.43C276.879 321.43 276.409 320.85 277.279 319.36L285.345 305.227H281.565L274.846 316.961C271.973 319.576 269.761 321.029 269.032 320.703C268.156 320.333 268.905 319.087 269.396 318.271C269.434 318.207 269.471 318.146 269.505 318.088L276.879 305.227H273.101L265.763 317.922C265.257 318.383 264.454 318.813 263.73 319.202C263.286 319.44 262.872 319.662 262.573 319.866C263.044 318.454 263.29 316.746 263.557 314.899V314.899L263.557 314.898C263.969 312.04 264.43 308.851 265.842 305.916L263.01 304.389C261.447 306.532 252.727 318.087 249.312 322.082C249.637 322.554 250.184 323.027 250.728 323.39C252.871 320.92 260.066 311.656 261.41 309.876C260.909 311.194 260.667 312.866 260.43 314.504C259.961 317.741 259.511 320.848 257.122 320.848C255.852 320.848 255.342 319.466 255.342 319.466L252.981 320.702C252.981 320.702 253.671 323.752 257.121 323.752C257.455 323.752 257.757 323.722 258.085 323.689L258.085 323.689L258.177 323.68C258.184 323.68 258.19 323.679 258.197 323.677C258.203 323.675 258.209 323.672 258.215 323.669C258.22 323.667 258.225 323.665 258.23 323.662L258.23 323.662C258.241 323.657 258.251 323.651 258.262 323.648L258.267 323.646L258.27 323.645C258.275 323.645 258.279 323.644 258.283 323.644C260.203 323.39 262.861 322.506 264.643 321.274C264.631 322.811 265.559 323.752 267.143 323.752C269.211 323.752 271.538 321.863 273.353 320.12C272.992 322.155 274.188 323.752 276.588 323.752C278.934 323.752 281.547 321.866 284.025 319.389C284.059 321.899 285.993 323.752 289.151 323.752C292.217 323.752 295.265 322.039 297.892 319.736L295.787 323.39H299.603L303.926 315.87V318.884C303.926 322.116 304.543 323.752 307.596 323.752C310.719 323.752 314.317 320.411 317.441 316.777C317.439 316.774 317.437 316.771 317.434 316.767C317.428 316.76 317.422 316.752 317.421 316.743C317.435 316.755 317.452 316.766 317.468 316.777C319.181 314.803 320.733 312.712 321.971 311.043C322.282 310.624 322.574 310.231 322.843 309.873C322.343 311.191 322.102 312.861 321.865 314.499C321.396 317.737 320.946 320.846 318.556 320.846C317.286 320.846 316.776 319.464 316.776 319.464L314.414 320.7C314.414 320.7 315.105 323.75 318.556 323.75C318.884 323.75 319.182 323.721 319.508 323.688L319.612 323.678C319.628 323.678 319.643 323.671 319.659 323.663C319.678 323.653 319.697 323.643 319.717 323.643C323.57 323.131 327.385 320.081 330.218 316.773L330.219 316.775ZM215.445 315.689H215.628L218.388 310.967C220.676 307.042 217.044 305.262 214.391 309.767L212.575 312.855L209.705 317.832C207.452 321.756 211.776 322.336 213.555 319.286L213.592 319.213C213.374 318.851 213.229 318.416 213.229 317.944C213.229 316.706 214.21 315.689 215.445 315.689ZM190.198 329.82C189.398 331.237 188.126 331.02 188.126 330.004C188.126 329.024 189.035 327.898 191.941 326.77L190.198 329.82ZM155.353 321.393C156.915 321.393 159.168 319.685 161.456 316.09L164.397 310.93C166.251 307.514 162.219 306.607 160.184 310.129L154.917 319.322C154.046 320.813 154.518 321.393 155.353 321.393ZM149.402 301.34C150.528 299.413 151.764 298.578 152.817 298.578C154.235 298.578 154.888 299.522 154.888 300.903C154.888 304.427 150.524 311.736 144.716 310.784H143.953L149.402 301.34ZM241.925 315.726L242.179 315.434L242.18 315.435C242.69 315.653 243.343 316.235 243.598 316.746C240.472 320.379 236.878 323.721 233.752 323.721C230.699 323.721 229.574 321.144 231.172 318.345L236.076 309.807C237.712 307.009 235.132 306.066 229.355 313.296L223.579 323.359H219.764L222.304 318.965C220.618 319.895 218.75 320.415 217.37 320.415H216.535C212.297 325.773 205.269 324.57 205.789 319.293C202.537 322.512 199.423 324.471 196.264 325.465L193.358 330.443C190.636 335.093 185.076 334.329 185.076 330.696C185.076 327.864 188.273 325.755 193.396 324.231L195.467 320.671C193.758 322.195 191.689 323.721 189.872 323.721C187.99 323.721 187.031 322.389 187.484 320.311C185.31 322.301 183.077 323.721 181.044 323.721C177.993 323.721 176.867 321.145 178.465 318.345L183.369 309.811C185.004 307.012 182.424 306.069 176.647 313.299L170.871 323.362H167.057L168.449 320.951C166.507 322.6 164.539 323.724 162.729 323.724C160.805 323.724 159.641 322.709 159.461 321.255C157.644 322.744 155.755 323.724 154.229 323.724C151.554 323.724 150.358 321.743 151.181 319.369L150.957 319.582L150.957 319.582C148.467 321.951 146.604 323.724 142.5 323.724C137.16 323.724 135.599 318.64 138.25 314.062L139.375 312.098C136.325 310.5 134.617 307.593 134.617 304.58C134.617 302.034 135.814 299.458 138.504 297.53L139.739 299.748C138.105 301.018 137.305 302.762 137.305 304.505C137.305 306.613 138.469 308.72 140.685 309.883L146.571 299.746C148.277 296.768 150.748 295.314 152.819 295.314C155.615 295.314 157.832 297.529 157.832 300.944C157.832 302.434 157.359 304.177 156.306 306.03C153.327 311.225 148.749 313.297 144.716 313.297C143.955 313.297 143.264 313.22 142.574 313.113L141.519 314.965C139.269 318.817 140.83 321.396 143.409 321.396C147.084 321.396 149.168 318.979 151.822 315.9L151.969 315.729L152.223 315.437C152.494 315.51 152.791 315.692 153.051 315.925L156.954 309.189C158.55 306.426 161.386 304.829 163.419 304.829C165.89 304.829 167.525 307.045 167.38 308.643H169.523L163.419 319.323C162.548 320.815 163.02 321.395 163.855 321.395C165.528 321.395 168.18 318.888 170.903 315.728L171.157 315.436C171.282 315.494 171.402 315.561 171.516 315.638L177.554 305.193H181.334L179.917 307.662C181.805 305.7 183.513 304.828 185.148 304.828C187.255 304.828 188.817 306.9 187.182 309.77L181.733 319.323C180.862 320.815 181.334 321.395 182.169 321.395C183.841 321.395 186.492 318.888 189.217 315.728L189.471 315.436C189.586 315.49 189.697 315.552 189.802 315.623L195.83 305.193H199.608L192.233 318.053L192.186 318.133L192.122 318.239C191.632 319.057 190.887 320.3 191.761 320.669C192.487 320.995 194.74 319.506 197.647 316.819L204.33 305.193H208.109L197.754 322.923C200.732 321.648 203.384 319.323 206.509 315.728L206.763 315.437C206.882 315.491 206.996 315.555 207.105 315.627L208.725 312.857L210.577 309.624C212.758 305.846 215.009 304.684 217.916 304.684C221.478 304.684 223.584 308.423 221.296 312.385L217.736 318.525C219.625 318.488 221.733 317.578 223.439 315.726L223.694 315.434C223.864 315.514 224.026 315.611 224.176 315.724L230.264 305.191H234.043L232.626 307.66C234.516 305.698 236.221 304.827 237.857 304.827C239.962 304.827 241.528 306.898 239.892 309.768L234.442 319.321C233.571 320.813 234.042 321.393 234.878 321.393C236.55 321.393 239.203 318.886 241.925 315.726ZM360.81 279.862C358.52 283.603 356.195 285.383 354.598 285.383C353.763 285.383 353.291 284.803 354.161 283.313L359.428 274.12C361.463 270.596 365.495 271.505 363.642 274.92H363.677L360.81 279.862ZM318.519 285.383C320.08 285.383 322.333 283.675 324.623 280.081L327.564 274.92C329.416 271.505 325.384 270.596 323.35 274.12L318.082 283.313C317.212 284.803 317.683 285.383 318.519 285.383ZM284.706 293.811C283.909 295.228 282.636 295.011 282.636 293.995C282.636 293.014 283.508 291.888 286.415 290.761L284.706 293.811ZM296.151 262.57C295.096 262.57 293.861 263.404 292.734 265.33L287.286 274.775H288.049C297.676 277.005 302.145 262.57 296.151 262.57ZM370.398 279.427L370.143 279.717C367.423 282.877 364.769 285.384 363.096 285.384C362.261 285.384 361.789 284.804 362.659 283.313L375.448 261.189H371.669L366.112 270.78C365.458 269.726 364.222 268.818 362.659 268.818C360.624 268.818 357.792 270.417 356.193 273.177L352.495 279.557C352.482 279.55 352.469 279.542 352.456 279.534L352.431 279.519C352.373 279.484 352.315 279.449 352.261 279.425L352.006 279.717C349.283 282.877 347.006 285.383 345.334 285.383C344.497 285.383 344.027 284.803 344.896 283.313L350.346 273.758C351.983 270.888 350.418 268.816 348.312 268.816C346.676 268.816 344.972 269.687 343.08 271.651L344.497 269.181H340.718L334.681 279.628C334.566 279.551 334.446 279.483 334.321 279.425L334.065 279.717C331.342 282.877 328.691 285.383 327.019 285.383C326.184 285.383 325.713 284.803 326.583 283.313L332.686 272.631H330.542C330.688 271.033 329.054 268.816 326.582 268.816C324.547 268.816 321.712 270.415 320.114 273.174L316.462 279.48L316.256 279.714C313.534 282.873 310.506 285.379 308.836 285.379C307.999 285.379 307.529 284.799 308.399 283.309L312.177 276.698C313.484 274.408 312.866 273.065 311.632 271.575L309.526 269.031C308.981 268.341 308.981 267.578 309.744 266.851L307.782 264.708C305.638 266.635 305.457 268.777 306.8 270.521L307.129 270.957L306.995 271.146L306.995 271.147C305.337 273.489 303.139 276.594 300.732 279.422C300.773 279.481 300.818 279.539 300.866 279.597C300.906 279.645 300.947 279.694 300.99 279.742C297.877 283.322 295.231 285.637 292.26 286.904L297.055 278.694H293.277L292.878 279.349C290.88 282.873 288.59 285.38 285.648 285.38C283.068 285.38 282.598 282.801 284.848 278.95L285.903 277.098C286.611 277.215 287.327 277.275 288.045 277.279C301.488 277.279 307.991 259.297 296.149 259.297C294.077 259.297 291.605 260.751 289.899 263.729L284.014 273.864C281.798 272.703 280.636 270.596 280.636 268.489C280.636 266.746 281.436 265.001 283.068 263.731L281.835 261.514C279.145 263.44 277.947 266.018 277.947 268.561C277.947 271.577 279.656 274.483 282.707 276.081L281.58 278.044C278.928 282.622 279.4 287.707 284.742 287.707C286.34 287.707 287.683 287.235 288.847 286.507L287.864 288.217C282.744 289.777 279.582 291.848 279.582 294.682C279.582 298.314 285.142 299.078 287.864 294.428L290.771 289.451C294.696 288.216 298.547 285.528 302.689 280.732C302.622 280.606 302.543 280.487 302.453 280.377C304.131 278.406 305.555 276.503 308.403 272.631L308.91 273.25C309.383 273.866 309.564 274.63 309.128 275.394L305.131 282.331C303.532 285.126 304.659 287.705 307.711 287.705C309.61 287.705 312.059 286.466 314.096 284.681C314.052 286.419 315.24 287.705 317.395 287.705C318.92 287.705 320.81 286.725 322.625 285.235C322.808 286.689 323.972 287.705 325.895 287.705C327.705 287.705 329.672 286.58 331.615 284.931L330.223 287.343H334.036L339.813 277.278C345.59 270.049 348.17 270.994 346.533 273.791L341.63 282.329C340.033 285.127 341.157 287.705 344.208 287.705C346.218 287.705 348.044 286.321 350.19 284.372C349.99 286.265 351.194 287.705 353.472 287.705C354.997 287.705 356.886 286.725 358.704 285.235C358.886 286.69 360.049 287.705 361.973 287.705C365.098 287.705 368.693 284.364 371.818 280.729C371.562 280.225 370.909 279.644 370.398 279.427ZM261.897 274.921C264.151 270.997 260.298 270.38 258.118 274.122L255.684 278.372C257.1 278.88 259.535 278.954 261.352 275.865L261.897 274.921ZM255.067 287.709C259.354 287.709 263.607 284.368 266.729 280.734C266.476 280.224 265.821 279.644 265.312 279.426L265.059 279.718C262.333 282.878 258.846 285.384 256.192 285.384C253.867 285.384 252.487 283.931 254.23 280.879L254.593 280.226C257.028 281.242 261.605 280.771 264.439 275.866L264.984 274.922C267.019 271.433 265.057 268.818 261.968 268.818C258.918 268.818 256.484 270.416 254.885 273.177L251.206 279.49C251.168 279.47 251.13 279.442 251.094 279.426L250.839 279.718C248.115 282.878 245.464 285.384 243.792 285.384C242.956 285.384 242.486 284.804 243.355 283.313L248.805 273.758C250.44 270.888 248.877 268.816 246.769 268.816C245.134 268.816 243.39 269.725 241.503 271.687L247.533 261.187H243.755L233.099 279.677C232.964 279.579 232.819 279.494 232.667 279.425L232.412 279.716C229.687 282.877 227.036 285.383 225.364 285.383C224.529 285.383 224.057 284.803 224.927 283.313L233.029 269.179H236.119L237.209 267.362H234.084L237.644 261.187H233.866L230.306 267.362H226.891L225.801 269.179H229.251L221.658 282.332C220.06 285.131 221.186 287.709 224.237 287.709C226.115 287.709 228.163 286.496 230.177 284.745L228.678 287.345H232.493L238.233 277.353C244.046 270.051 246.626 270.996 244.991 273.793L240.086 282.331C238.488 285.129 239.614 287.707 242.666 287.707C244.962 287.707 247.512 285.902 249.942 283.502C250.052 285.933 251.975 287.709 255.067 287.709ZM131.372 274.92C133.626 270.996 129.776 270.379 127.596 274.121L125.161 278.37C126.577 278.879 129.013 278.952 130.828 275.864L131.372 274.92ZM150.715 283.312L155.983 274.121C158.017 270.595 162.05 271.504 160.196 274.92L157.254 280.079C154.966 283.674 152.711 285.383 151.15 285.383C150.316 285.383 149.843 284.802 150.715 283.313V283.312ZM208.475 274.92C210.729 270.996 206.879 270.379 204.699 274.121L202.264 278.37C203.68 278.878 206.115 278.952 207.93 275.864L208.475 274.92ZM146.891 283.647C146.264 285.887 147.461 287.707 150.025 287.707C151.55 287.707 153.44 286.727 155.255 285.238C155.438 286.691 156.601 287.708 158.525 287.708C160.538 287.708 162.743 286.318 164.894 284.362C164.476 286.404 165.433 287.708 167.294 287.708C169.367 287.708 171.692 285.818 173.507 284.074C173.143 286.11 174.344 287.708 176.741 287.708C179.866 287.708 183.461 284.366 186.586 280.732C186.571 280.703 186.551 280.673 186.53 280.644C186.515 280.623 186.499 280.602 186.486 280.581C188.126 278.673 189.614 276.674 190.816 275.059L190.816 275.059L190.816 275.058L190.817 275.058L190.817 275.057C191.145 274.616 191.452 274.205 191.734 273.831C191.233 275.149 190.991 276.82 190.754 278.459V278.459C190.285 281.695 189.835 284.803 187.446 284.803C186.176 284.803 185.666 283.421 185.666 283.421L183.303 284.656C183.303 284.656 183.993 287.708 187.445 287.708C187.769 287.708 188.063 287.679 188.382 287.647L188.499 287.635C188.518 287.635 188.536 287.626 188.554 287.617C188.572 287.609 188.589 287.6 188.607 287.6C191.383 287.233 194.136 285.544 196.52 283.391C196.578 285.877 198.506 287.708 201.645 287.708C205.932 287.708 210.183 284.367 213.307 280.732C213.053 280.222 212.399 279.642 211.891 279.424L211.637 279.716C208.912 282.876 205.424 285.383 202.774 285.383C200.448 285.383 199.067 283.929 200.811 280.878L201.175 280.224C203.607 281.24 208.185 280.769 211.02 275.864L211.565 274.921C213.599 271.432 211.637 268.817 208.55 268.817C205.5 268.817 203.063 270.415 201.467 273.175L197.797 279.469C197.781 279.464 197.765 279.455 197.749 279.447C197.73 279.438 197.712 279.428 197.693 279.423L197.439 279.714C196.11 281.274 194.583 282.654 192.897 283.82C193.368 282.408 193.614 280.7 193.881 278.853V278.853L193.881 278.853C194.294 275.995 194.755 272.805 196.167 269.869L193.334 268.343C193.05 268.733 192.705 269.215 192.309 269.767L192.309 269.767C190.53 272.252 187.736 276.154 184.941 279.423C184.952 279.438 184.964 279.453 184.976 279.469C184.984 279.478 184.992 279.488 185 279.497L185.002 279.5L185.003 279.501C185.019 279.521 185.036 279.541 185.051 279.561L184.916 279.714C182.192 282.874 179.54 285.381 177.868 285.381C177.033 285.381 176.561 284.801 177.432 283.311L185.497 269.176H181.718L174.998 280.91C172.128 283.526 169.913 284.979 169.184 284.652C168.308 284.282 169.059 283.034 169.55 282.217L169.551 282.215L169.56 282.2C169.581 282.167 169.6 282.134 169.619 282.102C169.632 282.08 169.645 282.058 169.658 282.037L177.031 269.177H173.253L167.24 279.582L167.206 279.561C167.12 279.508 167.034 279.455 166.953 279.421L166.699 279.711C163.974 282.871 161.323 285.378 159.651 285.378C158.816 285.378 158.344 284.798 159.215 283.308L165.318 272.626H163.174C163.32 271.028 161.686 268.81 159.214 268.81C157.18 268.81 154.346 270.41 152.748 273.17L148.918 279.782C148.741 279.638 148.548 279.516 148.342 279.419L148.088 279.709C145.364 282.869 142.23 285.376 139.578 285.376C137.254 285.376 135.872 283.923 137.615 280.872L141.502 274.116C143.682 270.374 147.533 270.991 145.279 274.914L144.734 275.859H147.824L148.368 274.914C150.402 271.427 148.441 268.81 145.354 268.81C142.302 268.81 140.22 270.41 138.624 273.17L134.868 279.613C134.758 279.539 134.642 279.474 134.521 279.419L134.267 279.709C131.543 282.869 128.32 285.376 125.669 285.376C123.343 285.376 121.962 283.923 123.706 280.872L124.069 280.218C126.503 281.236 131.081 280.763 133.915 275.86L134.46 274.914C136.494 271.428 134.532 268.811 131.444 268.811C128.394 268.811 125.958 270.409 124.361 273.171L120.401 279.963C118.038 283.996 120.074 287.701 124.541 287.701C127.87 287.701 130.554 285.686 133.329 283.084C133.231 285.721 135.187 287.701 138.45 287.701C141.538 287.707 144.25 285.973 146.891 283.647ZM113.07 264.456L110.019 269.687V269.688C113.87 269.615 116.015 268.779 117.465 266.055C119.355 262.494 115.83 259.699 113.07 264.456ZM105.951 286.907C103.698 286.907 101.918 286.399 100.501 285.601C101.155 284.837 101.808 283.892 102.391 282.912L108.747 271.904L109.764 272.012C118.63 273.867 115.105 286.907 105.951 286.907ZM115.288 271.432C122.916 268.851 123.497 259.297 115.977 259.297C113.906 259.297 111.436 260.75 109.729 263.729L99.556 281.313C99.1362 282.068 98.6503 282.785 98.104 283.454C95.488 279.859 96.251 274.483 99.92 272.12L98.393 270.194C90.473 275.244 92.799 289.811 106.023 289.811C117.322 289.813 122.553 276.265 115.288 271.432Z" fill="white"/>
</svg>
